<svg width="40" height="40" viewBox="0 0 40 40" fill="none" xmlns="http://www.w3.org/2000/svg">
<circle cx="20" cy="20" r="20" fill="#4991FF"/>
<g clip-path="url(#clip0_10363_22584)">
<path d="M14.7013 17.8386C13.9001 17.8397 13.2511 18.4889 13.25 19.2899V25.0947C13.25 25.8963 13.8997 26.546 14.7013 26.546C15.5027 26.546 16.1524 25.8963 16.1524 25.0947V19.2899C16.1515 18.4889 15.5023 17.8397 14.7013 17.8386Z" fill="white"/>
<path d="M26.3277 18.489C25.9836 18.0764 25.4739 17.838 24.9366 17.8385H22.8008C23.1289 16.495 22.9666 15.1437 22.3545 14.2941C22.0224 13.796 21.4663 13.4935 20.8678 13.4849C20.021 13.4849 20.021 14.2693 20.021 14.8418C20.021 15.9706 19.7794 17.8385 17.1518 18.5747C16.9913 18.6168 16.8787 18.761 16.877 18.9269V24.734C16.8781 25.7342 17.6886 26.5447 18.6888 26.5459H24.0125C24.8881 26.5459 25.6383 25.9197 25.7948 25.0583L26.7195 19.9742C26.816 19.4455 26.6725 18.9013 26.3277 18.489Z" fill="white"/>
</g>
<defs>
<clipPath id="clip0_10363_22584">
<rect width="13.5" height="13.5" fill="white" transform="translate(13.25 13.25)"/>
</clipPath>
</defs>
</svg>
