<svg width="500" height="475" viewBox="0 0 500 475" fill="none" xmlns="http://www.w3.org/2000/svg">
<g clip-path="url(#clip0_12371_63632)">
<path opacity="0.03" d="M216.337 395.737L164.195 347.922L212.069 295.843L264.211 343.658L216.337 395.737Z" stroke="white" stroke-miterlimit="10" stroke-linecap="round" stroke-linejoin="round"/>
<path d="M234.888 199.139C234.888 203.557 231.306 207.139 226.888 207.139H31.7797C25.5966 207.139 20.5781 202.132 20.5781 195.951V34.2036C20.5781 29.7853 24.1598 26.2036 28.5781 26.2036H226.888C231.306 26.2036 234.888 29.7853 234.888 34.2036V199.139Z" fill="#2F2F33"/>
<path d="M231.822 196.549C231.822 200.967 228.241 204.549 223.822 204.549H34.5294C28.5232 204.549 23.6484 200.055 23.6484 194.506V50.134C23.6484 45.7158 27.2302 42.134 31.6484 42.134H223.822C228.241 42.134 231.822 45.7158 231.822 50.134V196.549Z" fill="#29292D"/>
<path d="M234.886 42.5754C234.886 42.6554 186.905 42.7239 127.74 42.7239C68.5515 42.7239 20.582 42.6554 20.582 42.5754C20.582 42.4955 68.5515 42.427 127.74 42.427C186.911 42.427 234.886 42.4898 234.886 42.5754Z" fill="#263238"/>
<path d="M167.332 34.4941C167.332 34.5741 150.319 34.6426 129.337 34.6426C108.344 34.6426 91.3359 34.5741 91.3359 34.4941C91.3359 34.4142 108.344 34.3457 129.337 34.3457C150.313 34.3457 167.332 34.4085 167.332 34.4941Z" fill="#4C4D54"/>
<path d="M31.2822 36.3026C32.411 36.3026 33.3261 35.3886 33.3261 34.2612C33.3261 33.1337 32.411 32.2197 31.2822 32.2197C30.1534 32.2197 29.2383 33.1337 29.2383 34.2612C29.2383 35.3886 30.1534 36.3026 31.2822 36.3026Z" fill="#FF6051"/>
<path d="M38.2275 36.3026C39.3563 36.3026 40.2714 35.3886 40.2714 34.2612C40.2714 33.1337 39.3563 32.2197 38.2275 32.2197C37.0987 32.2197 36.1836 33.1337 36.1836 34.2612C36.1836 35.3886 37.0987 36.3026 38.2275 36.3026Z" fill="#FEBE05"/>
<path d="M45.1455 36.3026C46.2743 36.3026 47.1894 35.3886 47.1894 34.2612C47.1894 33.1337 46.2743 32.2197 45.1455 32.2197C44.0167 32.2197 43.1016 33.1337 43.1016 34.2612C43.1016 35.3886 44.0167 36.3026 45.1455 36.3026Z" fill="#1ECB3D"/>
<path d="M116.598 64.6792C117.26 64.3029 117.671 63.6528 117.671 62.9001C117.671 61.7254 116.826 60.9727 115.468 60.9727H111.859V68.899H115.342C117.009 68.899 117.945 67.9866 117.945 66.6523C117.945 65.7513 117.454 65.0328 116.598 64.6792ZM115.981 63.2423C115.981 63.8011 115.559 64.1546 114.942 64.1546H113.538V62.3299H114.965C115.639 62.3299 115.981 62.6948 115.981 63.2423ZM115.091 67.5418H113.538V65.5118H115.079C115.787 65.5118 116.256 65.8653 116.256 66.5154C116.256 67.1655 115.833 67.5418 115.091 67.5418Z" fill="#4991FF"/>
<path d="M120.753 67.3936V60.9727H119.052V68.899H124.384V67.3936H120.753Z" fill="#4991FF"/>
<path d="M128.608 69.0472C130.937 69.0472 132.741 67.2681 132.741 64.9416C132.741 62.6036 130.937 60.8245 128.608 60.8245C126.278 60.8245 124.463 62.6036 124.463 64.9416C124.463 67.2681 126.278 69.0472 128.608 69.0472ZM128.608 67.4392C127.169 67.4392 126.187 66.4014 126.187 64.9301C126.187 63.4818 127.146 62.4325 128.608 62.4325C130.069 62.4325 131.017 63.4818 131.017 64.9301C131.017 66.4014 130.046 67.4392 128.608 67.4392Z" fill="#4991FF"/>
<path d="M141.648 64.645H137.583V65.9224H139.992C139.672 67.0172 138.873 67.519 137.777 67.519C136.19 67.519 135.242 66.504 135.242 64.9758C135.242 63.4589 136.178 62.4325 137.594 62.4325C138.667 62.4325 139.398 62.9914 139.707 63.9037L141.328 63.2309C140.848 61.9649 139.581 60.8245 137.628 60.8245C135.276 60.8245 133.518 62.558 133.518 64.9416C133.518 67.3023 135.253 69.0472 137.628 69.0472C139.901 69.0472 141.648 67.462 141.648 64.645Z" fill="#4991FF"/>
<path d="M122.403 88.3093C122.403 88.3893 118.156 88.4578 112.915 88.4578C107.674 88.4578 103.426 88.3893 103.426 88.3093C103.426 88.2294 107.674 88.1609 112.915 88.1609C118.156 88.1609 122.403 88.2294 122.403 88.3093Z" fill="#434346"/>
<path d="M148.598 88.3093C148.598 88.3893 143.945 88.4578 138.207 88.4578C132.469 88.4578 127.816 88.3893 127.816 88.3093C127.816 88.2294 132.469 88.1609 138.207 88.1609C143.945 88.1609 148.598 88.2294 148.598 88.3093Z" fill="#434346"/>
<path d="M147.698 97.876C147.698 97.9559 137.827 98.0244 125.655 98.0244C113.477 98.0244 103.605 97.9559 103.605 97.876C103.605 97.796 113.477 97.7275 125.655 97.7275C137.827 97.7275 147.698 97.7903 147.698 97.876Z" fill="#434346"/>
<path d="M148.6 106.357C148.6 106.437 138.609 106.505 126.282 106.505C113.956 106.505 103.965 106.437 103.965 106.357C103.965 106.277 113.956 106.208 126.282 106.208C138.609 106.208 148.6 106.277 148.6 106.357Z" fill="#434346"/>
<path d="M122.214 115.564C122.214 115.644 118.167 115.713 113.182 115.713C108.192 115.713 104.145 115.644 104.145 115.564C104.145 115.484 108.187 115.416 113.182 115.416C118.167 115.416 122.214 115.479 122.214 115.564Z" fill="#434346"/>
<path d="M145.891 115.383C145.891 115.463 141.444 115.532 135.952 115.532C130.459 115.532 126.012 115.463 126.012 115.383C126.012 115.303 130.459 115.235 135.952 115.235C141.444 115.235 145.891 115.303 145.891 115.383Z" fill="#434346"/>
<path d="M145.888 124.768C145.888 124.848 136.502 124.916 124.929 124.916C113.351 124.916 103.965 124.848 103.965 124.768C103.965 124.688 113.351 124.619 124.929 124.619C136.502 124.619 145.888 124.682 145.888 124.768Z" fill="#434346"/>
<path d="M66.3908 142.276C66.3908 142.356 62.4685 142.424 57.627 142.424C52.7856 142.424 48.8633 142.356 48.8633 142.276C48.8633 142.196 52.7856 142.127 57.627 142.127C62.4685 142.127 66.3908 142.196 66.3908 142.276Z" fill="#434346"/>
<path d="M92.7707 142.817C92.7707 142.897 88.2375 142.965 82.6538 142.965C77.0644 142.965 72.5312 142.897 72.5312 142.817C72.5312 142.737 77.0587 142.668 82.6538 142.668C88.2375 142.668 92.7707 142.737 92.7707 142.817Z" fill="#434346"/>
<path d="M93.3163 151.479C93.3163 151.559 83.485 151.627 71.3642 151.627C59.2376 151.627 49.4062 151.559 49.4062 151.479C49.4062 151.399 59.2319 151.331 71.3642 151.331C83.485 151.331 93.3163 151.399 93.3163 151.479Z" fill="#434346"/>
<path d="M96.0133 160.324C96.0133 160.404 85.4168 160.473 72.3426 160.473C59.2683 160.473 48.6719 160.404 48.6719 160.324C48.6719 160.245 59.2683 160.176 72.3426 160.176C85.4111 160.176 96.0133 160.245 96.0133 160.324Z" fill="#434346"/>
<path d="M133.797 132.888C133.797 132.968 127.083 133.037 118.799 133.037C110.515 133.037 103.801 132.968 103.801 132.888C103.801 132.809 110.515 132.74 118.799 132.74C127.078 132.74 133.797 132.809 133.797 132.888Z" fill="#434346"/>
<path d="M148.599 132.889C148.599 132.969 146.412 133.038 143.717 133.038C141.023 133.038 138.836 132.969 138.836 132.889C138.836 132.809 141.023 132.741 143.717 132.741C146.412 132.741 148.599 132.809 148.599 132.889Z" fill="#434346"/>
<path d="M146.436 142.634C146.436 142.714 137.21 142.783 125.837 142.783C114.459 142.783 105.238 142.714 105.238 142.634C105.238 142.554 114.459 142.486 125.837 142.486C137.216 142.486 146.436 142.554 146.436 142.634Z" fill="#434346"/>
<path d="M124.04 151.661C124.04 151.741 119.507 151.809 113.923 151.809C108.334 151.809 103.801 151.741 103.801 151.661C103.801 151.581 108.328 151.512 113.923 151.512C119.507 151.512 124.04 151.575 124.04 151.661Z" fill="#434346"/>
<path d="M148.957 160.866C148.957 160.946 139.046 161.014 126.822 161.014C114.593 161.014 104.688 160.946 104.688 160.866C104.688 160.786 114.599 160.718 126.822 160.718C139.046 160.718 148.957 160.786 148.957 160.866Z" fill="#434346"/>
<path d="M150.774 151.839C150.774 151.919 145.921 151.987 139.932 151.987C133.943 151.987 129.09 151.919 129.09 151.839C129.09 151.759 133.943 151.69 139.932 151.69C145.921 151.69 150.774 151.759 150.774 151.839Z" fill="#434346"/>
<path d="M203.9 88.491C203.9 88.5709 193.583 88.6394 180.863 88.6394C168.137 88.6394 157.82 88.5709 157.82 88.491C157.82 88.411 168.131 88.3425 180.863 88.3425C193.583 88.3425 203.9 88.411 203.9 88.491Z" fill="#434346"/>
<path d="M167.394 97.1538C167.394 97.2337 165.333 97.3023 162.787 97.3023C160.241 97.3023 158.18 97.2337 158.18 97.1538C158.18 97.0739 160.241 97.0054 162.787 97.0054C165.328 97.0054 167.394 97.0739 167.394 97.1538Z" fill="#434346"/>
<path d="M203.896 97.3347C203.896 97.4146 196.656 97.4832 187.721 97.4832C178.786 97.4832 171.547 97.4146 171.547 97.3347C171.547 97.2548 178.786 97.1863 187.721 97.1863C196.656 97.1863 203.896 97.2548 203.896 97.3347Z" fill="#434346"/>
<path d="M201.553 105.996C201.553 106.076 192.127 106.144 180.503 106.144C168.873 106.144 159.453 106.076 159.453 105.996C159.453 105.916 168.879 105.847 180.503 105.847C192.127 105.847 201.553 105.916 201.553 105.996Z" fill="#434346"/>
<path d="M202.993 114.659C202.993 114.739 193.281 114.808 181.309 114.808C169.331 114.808 159.625 114.739 159.625 114.659C159.625 114.58 169.331 114.511 181.309 114.511C193.281 114.511 202.993 114.58 202.993 114.659Z" fill="#434346"/>
<path d="M179.685 123.868C179.685 123.948 175.152 124.016 169.568 124.016C163.978 124.016 159.445 123.948 159.445 123.868C159.445 123.788 163.973 123.719 169.568 123.719C175.152 123.719 179.685 123.782 179.685 123.868Z" fill="#434346"/>
<path d="M202.996 124.044C202.996 124.124 198.948 124.193 193.964 124.193C188.974 124.193 184.926 124.124 184.926 124.044C184.926 123.965 188.968 123.896 193.964 123.896C198.948 123.896 202.996 123.965 202.996 124.044Z" fill="#434346"/>
<path d="M103.306 64.4658C103.306 64.5458 93.5204 64.6143 81.4567 64.6143C69.3873 64.6143 59.6016 64.5458 59.6016 64.4658C59.6016 64.3859 69.3816 64.3174 81.4567 64.3174C93.5204 64.3174 103.306 64.3859 103.306 64.4658Z" fill="#434346"/>
<path d="M196.511 64.4658C196.511 64.5458 186.24 64.6143 173.571 64.6143C160.896 64.6143 150.625 64.5458 150.625 64.4658C150.625 64.3859 160.896 64.3174 173.571 64.3174C186.234 64.3174 196.511 64.3859 196.511 64.4658Z" fill="#434346"/>
<path d="M208.308 134.435C208.285 134.481 207.6 134.082 206.253 133.654C204.917 133.238 202.85 132.839 200.355 133.215C199.116 133.415 197.775 133.785 196.461 134.464C195.143 135.125 193.886 136.106 192.636 137.212C191.38 138.319 190.136 139.573 188.697 140.736C187.258 141.877 185.614 142.96 183.673 143.451C182.708 143.696 181.703 143.764 180.738 143.628C179.773 143.496 178.86 143.183 178.02 142.789C176.336 141.997 174.892 140.953 173.464 140.086C172.048 139.203 170.621 138.495 169.182 138.17C167.749 137.823 166.362 137.754 165.106 137.857C162.588 138.079 160.681 138.969 159.482 139.687C158.278 140.423 157.707 140.976 157.673 140.942C157.661 140.93 157.804 140.793 158.084 140.543C158.358 140.286 158.792 139.938 159.391 139.55C160.579 138.781 162.503 137.823 165.077 137.56C166.356 137.429 167.784 137.486 169.262 137.828C170.752 138.148 172.237 138.872 173.67 139.756C175.114 140.622 176.559 141.655 178.192 142.413C179.813 143.194 181.714 143.536 183.558 143.04C185.403 142.573 187.007 141.529 188.423 140.411C189.839 139.277 191.089 138.028 192.362 136.922C193.63 135.81 194.926 134.817 196.29 134.15C197.649 133.466 199.031 133.101 200.298 132.919C202.862 132.571 204.957 133.033 206.293 133.5C206.972 133.734 207.475 133.973 207.806 134.15C208.148 134.321 208.32 134.424 208.308 134.435Z" fill="#303034"/>
<path d="M172.863 144.229H167.422V158.924H172.863V144.229Z" fill="#303034"/>
<path d="M195.964 144.23H190.523V158.925H195.964V144.23Z" fill="#303034"/>
<path d="M203.656 135.603H198.215V158.926H203.656V135.603Z" fill="#303034"/>
<path d="M165.839 154.294H160.398V159.238H165.839V154.294Z" fill="#303034"/>
<path d="M180.566 150.87H175.125V158.927H180.566V150.87Z" fill="#303034"/>
<path d="M188.273 149.016H182.832V158.921H188.273V149.016Z" fill="#303034"/>
<path d="M95.4925 88.3069H49.5898V132.665H95.4925V88.3069Z" fill="#2F2F33"/>
<path d="M91.891 91.7852H53.1875V129.187H91.891V91.7852Z" fill="#252529"/>
<path d="M53.1367 128.875L65.8342 106.049L76.2251 120.635L82.5338 112.886L91.9256 128.875H53.1367Z" fill="#29292D"/>
<g opacity="0.3">
<path d="M79.7776 99.1856C82.4724 102.715 78.4759 106.707 74.9361 104.021C72.2471 100.486 76.2436 96.4941 79.7776 99.1856Z" fill="#3B3B3E"/>
</g>
<path d="M96.0989 169.64C96.0989 169.72 85.5481 169.789 72.5367 169.789C59.5195 169.789 48.9688 169.72 48.9688 169.64C48.9688 169.56 59.5195 169.492 72.5367 169.492C85.5424 169.492 96.0989 169.555 96.0989 169.64Z" fill="#454548"/>
<path d="M151.136 169.333C151.136 169.412 140.985 169.481 128.459 169.481C115.932 169.481 105.781 169.412 105.781 169.333C105.781 169.253 115.932 169.184 128.459 169.184C140.985 169.184 151.136 169.253 151.136 169.333Z" fill="#454548"/>
<path d="M207.253 168.471C207.253 168.551 197.164 168.62 184.718 168.62C172.272 168.62 162.184 168.551 162.184 168.471C162.184 168.391 172.272 168.323 184.718 168.323C197.164 168.323 207.253 168.391 207.253 168.471Z" fill="#454548"/>
<path d="M96.0989 177.271C96.0989 177.351 85.5481 177.42 72.5367 177.42C59.5195 177.42 48.9688 177.351 48.9688 177.271C48.9688 177.192 59.5195 177.123 72.5367 177.123C85.5424 177.123 96.0989 177.192 96.0989 177.271Z" fill="#454548"/>
<path d="M151.136 176.968C151.136 177.047 140.985 177.116 128.459 177.116C115.932 177.116 105.781 177.047 105.781 176.968C105.781 176.888 115.932 176.819 128.459 176.819C140.985 176.819 151.136 176.882 151.136 176.968Z" fill="#454548"/>
<path d="M207.253 176.107C207.253 176.187 197.164 176.255 184.718 176.255C172.272 176.255 162.184 176.187 162.184 176.107C162.184 176.027 172.272 175.958 184.718 175.958C197.164 175.958 207.253 176.027 207.253 176.107Z" fill="#454548"/>
<path d="M142.229 197.148H111.279C107.726 197.148 104.844 194.272 104.844 190.721C104.844 187.172 107.724 184.293 111.279 184.293H142.229C145.782 184.293 148.664 187.169 148.664 190.721C148.664 194.269 145.784 197.148 142.229 197.148Z" fill="#4991FF"/>
<path d="M120.673 190.704C120.673 191.279 120.244 191.634 119.554 191.634H119.034V192.344H118.438V189.77H119.552C120.241 189.77 120.673 190.128 120.673 190.704ZM120.07 190.704C120.07 190.421 119.886 190.256 119.521 190.256H119.034V191.15H119.521C119.886 191.15 120.07 190.983 120.07 190.704Z" fill="#CAD7EB"/>
<path d="M121.059 191.212V189.77H121.655V191.19C121.655 191.679 121.87 191.881 122.23 191.881C122.595 191.881 122.805 191.679 122.805 191.19V189.77H123.395V191.212C123.395 191.97 122.96 192.389 122.228 192.389C121.493 192.389 121.059 191.97 121.059 191.212Z" fill="#CAD7EB"/>
<path d="M126.351 191.641C126.351 192.086 125.997 192.344 125.32 192.344H123.988V189.77H125.248C125.892 189.77 126.224 190.039 126.224 190.439C126.224 190.697 126.091 190.895 125.883 191.007C126.167 191.097 126.351 191.319 126.351 191.641ZM124.58 190.218V190.826H125.172C125.463 190.826 125.62 190.723 125.62 190.521C125.62 190.318 125.463 190.218 125.172 190.218H124.58ZM125.749 191.579C125.749 191.362 125.585 191.259 125.274 191.259H124.578V191.896H125.274C125.585 191.896 125.749 191.8 125.749 191.579Z" fill="#CAD7EB"/>
<path d="M126.809 189.77H127.405V191.858H128.698V192.344H126.811V189.77H126.809Z" fill="#CAD7EB"/>
<path d="M129.031 189.77H129.628V192.344H129.031V189.77Z" fill="#CAD7EB"/>
<path d="M130.031 192.091L130.234 191.643C130.451 191.801 130.776 191.913 131.084 191.913C131.437 191.913 131.58 191.796 131.58 191.636C131.58 191.155 130.081 191.486 130.081 190.53C130.081 190.094 130.435 189.729 131.167 189.729C131.492 189.729 131.823 189.806 132.062 189.958L131.878 190.411C131.64 190.275 131.391 190.209 131.165 190.209C130.812 190.209 130.676 190.342 130.676 190.502C130.676 190.976 132.174 190.649 132.174 191.593C132.174 192.022 131.816 192.392 131.081 192.392C130.671 192.389 130.258 192.268 130.031 192.091Z" fill="#CAD7EB"/>
<path d="M134.947 189.77V192.344H134.35V191.288H133.179V192.344H132.582V189.77H133.179V190.785H134.35V189.77H134.947Z" fill="#CAD7EB"/>
<g opacity="0.15">
<path opacity="0.2" d="M406.418 49.5247C402.528 49.4269 398.61 49.3849 394.665 49.4129C363.728 49.6645 335.072 54.1505 311.159 61.6692C287.274 68.0419 285.819 43.0821 294.158 27.6535C300.091 16.6689 308.137 13.6642 311.159 12.5322C335.072 5.01357 363.728 0.527512 394.665 0.275959C398.61 0.248009 402.542 0.275959 406.418 0.387764C434.487 2.4561 441.847 29.3864 428.722 41.9501C425.056 45.4579 418.214 49.6225 406.418 49.5247Z" fill="#4991FF"/>
<path d="M397.362 -0.256962C396.467 -0.256962 395.557 -0.256958 394.662 -0.242981C364.704 0.00856781 335.782 4.24307 311.002 12.0412C307.896 13.2012 299.724 16.2618 293.694 27.414C288.712 36.6237 286.683 50.543 292.742 58.2014C295.401 61.5695 300.788 64.9934 311.296 62.1844C335.992 54.4142 364.816 50.1936 394.676 49.9421C398.593 49.9141 402.539 49.9421 406.415 50.0539H406.429C418.406 50.0958 425.375 45.9032 429.097 42.3395C435.239 36.456 437.198 27.1065 434.092 18.5118C430.244 7.83469 419.918 0.86105 406.471 -0.117214C403.449 -0.215042 400.398 -0.256962 397.362 -0.256962ZM304.132 62.1564C299.584 62.1564 295.988 60.6052 293.568 57.5446C287.789 50.2495 289.804 36.8193 294.631 27.9031C300.48 17.1003 308.371 14.1375 311.352 13.0195C336.006 5.27723 364.83 1.04273 394.676 0.791183C398.607 0.763233 402.553 0.791176 406.415 0.902981C419.414 1.86728 429.404 8.56141 433.098 18.8472C436.051 27.0646 434.204 35.9808 428.369 41.5709C424.815 44.9669 418.211 49.0057 406.821 49.0057C406.695 49.0057 406.569 49.0057 406.429 49.0057C402.539 48.8939 398.579 48.866 394.662 48.8939C364.704 49.1315 335.782 53.38 311.002 61.1782C308.525 61.835 306.231 62.1564 304.132 62.1564Z" fill="#4991FF"/>
</g>
<g opacity="0.05">
<path d="M393.814 24.5639L330.182 24.4697C329.801 24.4697 329.489 24.0817 329.492 23.6068C329.492 23.1319 329.804 22.7476 330.186 22.7476L393.818 22.8418C394.199 22.8418 394.507 23.2297 394.507 23.7047C394.507 24.1796 394.195 24.5639 393.814 24.5639Z" fill="white"/>
<path d="M375.333 34.7758L329.966 34.707C329.694 34.707 329.473 34.3227 329.473 33.8441C329.473 33.3692 329.694 32.9849 329.966 32.9849L375.333 33.0537C375.605 33.0537 375.826 33.438 375.826 33.9166C375.826 34.3915 375.605 34.7758 375.333 34.7758Z" fill="white"/>
<path d="M355.932 29.4661L330.182 29.4262C329.801 29.4262 329.492 29.0383 329.492 28.5633C329.492 28.0884 329.804 27.7041 330.185 27.7041L355.936 27.744C356.317 27.744 356.626 28.1319 356.626 28.6068C356.626 29.0818 356.313 29.4697 355.932 29.4661Z" fill="white"/>
<path d="M368 29.4833L360.354 29.4724C359.973 29.4724 359.664 29.0844 359.664 28.6094C359.664 28.1344 359.976 27.75 360.357 27.75L368.003 27.7609C368.384 27.7609 368.693 28.1489 368.693 28.6239C368.693 29.0989 368.381 29.4869 368 29.4833Z" fill="white"/>
</g>
<path opacity="0.1" d="M500.137 474.351L0.437979 474.351" stroke="white" stroke-miterlimit="10" stroke-linecap="round" stroke-linejoin="round"/>
<path d="M41.3995 368.259C42.2722 361.501 35.1038 357.799 30.4566 356.122C31.2174 348.903 33.1345 342.19 35.529 336.245C40.1537 343.405 48.4784 354.535 49.739 344.18C50.7982 335.5 44.1594 331.283 38.6768 329.301C44.6294 317.53 51.4845 310.162 51.4845 310.162C51.4845 310.162 54.6771 311.957 59.2273 315.422C57.6683 319.214 56.3107 324.451 59.2347 327.014C62.2856 329.681 63.3075 323.796 63.6432 318.99C69.4764 323.989 76.3316 331.045 81.7023 340.045C77.6668 342.697 70.8937 347.92 74.5562 351.131C78.3754 354.476 82.8212 348.799 84.7755 345.811C86.6105 349.663 88.1397 353.805 89.1915 358.246C89.6092 360.019 89.915 361.688 90.1239 363.282C84.9769 363.051 69.6704 363.081 73.1315 371.895C76.2868 379.926 85.9168 373.973 90.3477 370.673C88.6842 389.731 68.365 389.343 61.3979 373.459C59.3243 393.672 33.2837 399.215 30.3596 368.356C33.7163 371.112 40.4447 375.664 41.3995 368.259Z" fill="url(#paint0_linear_12371_63632)"/>
<path d="M53.5902 316.897C53.5902 316.897 65.8907 386.959 63.899 442.747" stroke="#00FFA3" stroke-miterlimit="10" stroke-linecap="round" stroke-linejoin="round"/>
<path d="M72.2022 372.527C76.3272 367.997 70.9639 361.277 67.8086 358.007C72.053 353.052 76.9165 349.014 81.7501 345.766C82.2126 352.538 83.9581 367.17 90.2911 360.085C95.7812 353.939 90.3881 346.846 86.3227 342.897C97.4819 336.393 107.313 334.024 107.313 334.024C107.313 334.024 109.693 338.062 112.184 344.596C109.007 346.384 104.792 349.521 106.194 352.978C107.597 356.442 111.356 352.538 113.848 349.327C115.966 355.943 117.786 364.19 117.809 373.064C113.132 373.004 106.657 373.555 108.134 377.184C109.559 380.708 114.265 380.074 117.533 379.136C117.145 383.144 116.347 387.219 115.004 391.287C114.862 391.712 114.72 392.121 114.571 392.531C109.499 389.439 98.4367 383.598 97.4222 390.765C96.46 397.568 106.411 398.476 111.871 398.469C101.174 417.274 81.7427 406.21 83.9805 389.03C72.0008 404.049 46.9225 394.751 60.7819 368.34C61.2593 367.439 61.7516 366.552 62.2738 365.695C63.2659 368.377 67.3387 377.869 72.2022 372.527Z" fill="url(#paint1_linear_12371_63632)"/>
<path d="M28.7476 392.92C27.5318 387.399 20.0724 387.422 15.4402 387.995C13.9856 382.162 13.7096 376.261 14.0826 370.756C20.3036 374.384 30.978 379.584 29.046 371.15C27.4273 364.08 20.2813 363.506 14.8285 364.177C16.6411 352.793 20.5647 344.411 20.5647 344.411C20.5647 344.411 23.9289 344.508 28.9938 345.343C28.7252 348.867 29.0684 353.419 32.4176 354.216C35.916 355.043 35.0881 350.126 33.9692 346.319C40.6229 347.816 48.7983 350.476 56.2278 355.222C53.4231 358.865 48.9475 365.57 53.1471 366.561C57.5258 367.597 59.8009 361.48 60.6587 358.41C63.4261 360.631 66.007 363.186 68.2448 366.166C69.14 367.351 69.9008 368.513 70.5572 369.645C65.9175 371.523 52.3266 377.662 58.0032 383.026C63.1725 387.914 69.9754 379.517 72.9368 375.211C77.0767 390.462 58.9057 398.284 48.0375 388.897C52.155 405.198 30.6498 419.838 18.9535 397.383C22.7578 398.173 30.0754 398.97 28.7476 392.92Z" fill="url(#paint2_linear_12371_63632)"/>
<path d="M104.453 339.471C104.453 339.471 81.8439 384.299 67.5518 442.739" stroke="#00FFA3" stroke-miterlimit="10" stroke-linecap="round" stroke-linejoin="round"/>
<path d="M23.9978 350.103C23.9978 350.103 59.9071 390.282 62.2344 445.071" stroke="#00FFA3" stroke-miterlimit="10" stroke-linecap="round" stroke-linejoin="round"/>
<path d="M44.6834 427.817H86.1499C86.1499 427.817 86.3214 430.089 86.2468 433.583H44.5789C44.5193 430.089 44.6834 427.817 44.6834 427.817Z" fill="#4991FF"/>
<path d="M76.6467 467.661V468.16H54.1941V467.661C45.5039 462.043 45.8396 449.728 44.9072 439.387H85.9336C85.0012 449.72 85.3368 462.036 76.6467 467.661Z" fill="#4991FF"/>
<path d="M85.9371 439.387H44.9107C44.7167 437.242 44.6272 435.275 44.5899 433.583H86.2578C86.2205 435.267 86.131 437.242 85.9371 439.387Z" fill="#4991FF"/>
<path d="M54.1958 468.16H76.6484V473.964H54.1958V468.16Z" fill="#4991FF"/>
<path d="M363.763 222.976C397.393 163.24 413.031 139.59 425.452 156.112C440.989 176.794 396.876 241.907 374.087 247.816C351.299 253.725 310.46 244.202 310.46 244.202C310.46 237.963 311.853 234.951 311.853 234.951L363.763 222.976Z" fill="#F5A548"/>
<path d="M294.223 232.097C302.437 226.346 311.828 234.965 311.828 234.965C311.828 234.965 310.435 237.977 310.435 244.216C300.872 245.278 295.444 243.083 295.444 243.083C295.444 243.083 284.789 246.454 281.328 243.686C277.882 240.932 286.009 237.848 294.223 232.097Z" fill="#FCAF8D"/>
<path d="M410.459 145.528L407.659 129.393L431.467 108.166L436.637 138.428C431.611 141.369 422.378 145.528 410.459 145.528Z" fill="#FCAF8D"/>
<path d="M436.638 138.429L437.227 141.9C440.587 155.941 420.411 163.427 414.438 157.475C413.347 156.385 412.298 156.199 412.298 156.199L410.446 145.528C422.379 145.528 431.612 141.369 436.638 138.429Z" fill="#F5A548"/>
<path d="M407.169 72.8267C407.169 72.8267 432.672 69.3989 432.672 104.753C432.672 116.026 432.27 120.687 427.33 124.76C421.055 129.952 408.131 137.051 400.233 139.203C383.906 143.663 384.825 128.647 383.677 120.386C382.944 115.208 383.906 109.93 383.906 104.695C383.906 69.3559 407.169 72.8267 407.169 72.8267Z" fill="#FFC2A1"/>
<path d="M386.619 106.732C386.619 107.75 387.452 108.582 388.472 108.582C389.491 108.582 390.324 107.75 390.324 106.732C390.324 105.714 389.491 104.882 388.472 104.882C387.438 104.882 386.619 105.714 386.619 106.732Z" fill="#010101"/>
<path d="M397.133 107.349C397.133 107.349 392.968 102.674 386.622 104.696" stroke="#010101" stroke-width="0.4874" stroke-miterlimit="10" stroke-linecap="round" stroke-linejoin="round"/>
<path d="M386.853 100.967C386.853 100.967 392.539 98.3421 397.551 102.745" stroke="#010101" stroke-width="0.4874" stroke-miterlimit="10" stroke-linecap="round" stroke-linejoin="round"/>
<path d="M379.934 114.921C382.174 109.256 383.926 104.695 383.926 104.695V119.597C383.911 119.611 377.694 120.586 379.934 114.921Z" fill="#E4A17D"/>
<path d="M299 310.664C312.153 297.311 323.914 288.749 346.774 283.141C366.978 278.179 389.839 277.82 410.646 277.376L470.483 273.934C475.854 298.989 478.051 300.252 472.206 310.176C460.632 336.638 424.547 337.541 328.006 341.227L243.614 455.349L230.691 439.228L299 310.664Z" fill="#2B2B30"/>
<path d="M298.845 302.274C318.69 281.965 364.885 279.943 399.219 275.611C407.361 280.617 428.542 291.746 480.883 299.907C480.222 304.726 479.03 308.699 477.178 311.854C465.604 338.316 435.19 333.697 338.65 337.383L321.117 463.165L302.219 456.553C302.219 456.553 296.748 372.163 292.799 332.722C291.679 321.535 290.99 310.32 298.845 302.274Z" fill="#2F2F33"/>
<path d="M478.965 256.838C478.993 256.824 479.036 256.824 478.965 256.838V256.838Z" fill="#664439"/>
<path d="M481.42 283.514C481.664 289.782 481.534 295.246 480.903 299.907C451.422 306.662 407.381 290.915 399.239 275.611C400.833 271.208 402.068 267.193 403.016 263.449C432.568 285.335 467.792 284.747 481.42 283.514Z" fill="#F5A548"/>
<path d="M403.863 259.721C411.445 224.095 390.595 217.598 390.595 192.456C390.595 186.245 405.357 135.546 444.429 146.503C444.429 146.503 457.726 148.454 466.874 196.959C470.076 213.912 475.892 234.12 478.964 256.824C478.921 256.824 478.893 256.838 478.964 256.824C479.955 264.769 480.716 271.926 481.133 278.323C469.932 279.585 437.408 280.775 403.863 259.721Z" fill="#FFB156"/>
<path d="M403.002 263.45C403.333 262.174 403.62 260.94 403.864 259.736C437.408 280.79 469.933 279.585 481.133 278.352C481.248 280.13 481.349 281.851 481.406 283.529C467.793 284.748 432.569 285.336 403.002 263.45Z" fill="#FFB156"/>
<path d="M440.745 88.1292C440.745 88.1292 450.696 82.4497 456.052 94.7697C461.408 107.09 452.204 122.221 441.219 117.904C430.234 113.572 430.291 99.517 440.745 88.1292Z" fill="#E33D15"/>
<path d="M390.321 221.872C423.952 162.136 439.59 138.486 452.011 155.008C467.548 175.69 423.435 240.803 400.646 246.712C377.857 252.621 337.018 243.098 337.018 243.098C337.018 236.859 338.411 233.847 338.411 233.847L390.321 221.872Z" fill="#F5A548"/>
<path d="M320.793 230.993C329.007 225.242 338.398 233.861 338.398 233.861C338.398 233.861 337.006 236.873 337.006 243.112C327.442 244.174 322.014 241.979 322.014 241.979C322.014 241.979 311.359 245.35 307.898 242.582C304.438 239.828 312.58 236.744 320.793 230.993Z" fill="#FFC2A1"/>
<path d="M289.18 467.582H286.811L285.332 462.104C290.401 460.153 296.073 457.041 301.989 451.06C301.616 451.433 306.656 457.012 311.897 457.801C316.205 458.461 319.723 457.528 322.294 454.488C323.112 456.223 323.672 458.045 324.031 459.866C323.213 459.967 321.633 460.253 319.522 461.143C309.873 465.187 299.634 467.582 289.18 467.582Z" fill="#FFC2A1"/>
<path d="M390.703 123.01C390.703 123.01 385.29 121.748 383.825 122.407C382.36 123.067 382.963 124.258 384.098 124.516C383.136 125.964 382.992 127.298 384.801 127.312C389.325 127.341 390.703 123.01 390.703 123.01Z" fill="#F75A4D"/>
<path d="M383.779 124.616C386.034 124.587 388.561 124.114 391.117 122.809" stroke="#010101" stroke-width="0.5243" stroke-miterlimit="10" stroke-linecap="round" stroke-linejoin="round"/>
<path d="M392.598 116.671C392.598 122.566 397.379 127.342 403.281 127.342C409.183 127.342 413.965 122.566 413.965 116.671C413.965 110.776 409.183 106 403.281 106C397.365 106.015 392.598 110.791 392.598 116.671Z" fill="#FCAF8D"/>
<path d="M380.143 87.0255C382.843 75.609 397.145 67.5344 416.286 70.0156C421.499 70.6897 430.589 73.2282 433.288 76.5126C443.512 87.7139 441.071 105.054 435.586 133.25C435.227 133.25 434.782 133.236 434.265 133.193C425.433 132.519 420.034 123.656 422.676 115.222C423.883 111.35 423.064 107.377 419.919 107.377C417.607 107.377 415.985 108.137 414.865 109.055C414.262 119.582 411.418 133.91 401.424 143.892C408.116 125.735 407.125 106.33 406.12 97.2228C403.147 95.7455 400.074 93.1496 397.676 88.5888C398.724 96.7065 403.765 99.0156 403.765 99.0156C403.765 99.0156 385.786 100.909 384.02 89.7935C380.99 94.4978 385.729 100.163 385.729 100.163C385.729 100.163 377.443 98.4562 380.143 87.0255Z" fill="#E33D15"/>
<path d="M414.868 109.07C414.868 109.07 417.008 104.709 422.565 104.709C428.122 104.709 427.734 117.273 413.246 121.002C414.509 113.329 414.868 109.07 414.868 109.07Z" fill="#FFC2A1"/>
<path d="M214.66 441.164L212.621 439.96L214.129 434.495C219.485 435.384 225.961 435.585 234.103 433.434C233.586 433.577 235.108 440.921 239.215 444.262C242.604 447.016 246.093 447.991 249.855 446.686C249.683 448.594 249.224 450.444 248.621 452.208C247.874 451.878 246.352 451.319 244.097 451.017C233.715 449.598 223.663 446.471 214.66 441.164Z" fill="#FFC2A1"/>
<path d="M285.317 462.103L286.796 467.582H289.166C299.619 467.582 309.872 465.187 319.508 461.142C321.619 460.253 323.198 459.966 324.017 459.866C324.864 464.083 324.663 468.242 324.333 471.01H265.96C269.091 465.359 276.228 465.603 285.317 462.103Z" fill="#434347"/>
<path d="M324.352 471.01C324.122 473.046 323.82 474.351 323.82 474.351H264.759C265.046 473.046 265.462 471.956 265.979 471.01H324.352Z" fill="#48484A"/>
<path d="M214.127 434.495L212.619 439.959L214.658 441.164C223.661 446.471 233.713 449.597 244.067 451.003C246.335 451.304 247.843 451.863 248.59 452.193C247.183 456.223 244.928 459.68 243.234 461.903L192.357 432.688C198.101 428.815 204.218 432.845 214.127 434.495Z" fill="#434347"/>
<path d="M243.262 461.917C241.998 463.595 241.065 464.57 241.065 464.57L190.188 434.609C190.921 433.82 191.653 433.203 192.4 432.701L243.262 461.917Z" fill="#48484A"/>
<path d="M487.191 334.86C488.397 335.247 489.589 335.634 490.795 336.036C503.245 297.757 503.245 256.523 490.795 218.243C489.589 218.63 488.397 219.018 487.191 219.419C499.397 256.924 499.397 297.341 487.191 334.86Z" fill="#2F2F33"/>
<path d="M487.189 186.26C489.86 186.26 492.043 188.426 492.043 191.108V269.101C492.043 271.768 489.875 273.948 487.189 273.948C484.518 273.948 482.336 271.783 482.336 269.101V191.108C482.336 188.426 484.504 186.26 487.189 186.26Z" fill="#434347"/>
<path opacity="0.5" d="M427.334 336.036H431.125V451.491H427.334V336.036Z" fill="#2F2F33"/>
<path d="M458.895 451.534V460.57H455.104V454.015C455.104 452.682 454.012 451.592 452.677 451.592H405.749C404.414 451.592 403.322 452.682 403.322 454.015V460.57H399.532V451.534C399.532 449.483 401.197 447.805 403.265 447.805H455.161C457.229 447.805 458.895 449.469 458.895 451.534Z" fill="#2F2F33"/>
<path d="M466.371 464.888C466.371 470.108 462.135 474.339 456.908 474.339C451.681 474.339 447.445 470.108 447.445 464.888C447.445 459.667 451.681 455.436 456.908 455.436C462.135 455.436 466.371 459.667 466.371 464.888Z" fill="#2F2F33"/>
<path d="M411 464.888C411 470.108 406.764 474.339 401.537 474.339C396.31 474.339 392.074 470.108 392.074 464.888C392.074 459.667 396.31 455.436 401.537 455.436C406.764 455.436 411 459.667 411 464.888Z" fill="#2F2F33"/>
<path d="M491.242 336.036C491.242 339.808 488.169 342.877 484.393 342.877H374.081C370.305 342.877 367.232 339.808 367.232 336.036C367.232 332.264 370.305 329.195 374.081 329.195H484.393C488.169 329.195 491.242 332.249 491.242 336.036Z" fill="#434347"/>
<path d="M363.533 251.889H369.363V474.351H363.533V251.889Z" fill="#242428"/>
<path d="M127.732 251.889H133.562V474.351H127.732V251.889Z" fill="#242428"/>
<path d="M106.5 248.204H390.621V255.59H106.5V248.204Z" fill="#434347"/>
<path d="M245.695 244.103H256.307L281.092 158.408L288.946 177.942L276.252 244.103H286.922C288.071 244.103 289.004 245.035 289.004 246.183C289.004 247.33 288.071 248.262 286.922 248.262H245.695C244.546 248.262 243.613 247.33 243.613 246.183C243.613 245.035 244.546 244.103 245.695 244.103Z" fill="#242428"/>
<path d="M296.79 229.044C298.57 228.685 299.733 226.964 299.389 225.171L275.925 106.475C275.566 104.697 273.843 103.535 272.048 103.879C270.267 104.238 269.104 105.959 269.449 107.751L292.913 226.448C293.272 228.241 294.995 229.402 296.79 229.044Z" fill="#2F2F33"/>
<path d="M333.836 248.204H309.252C309.252 248.204 310.659 239.871 321.544 239.871C332.429 239.871 333.836 248.204 333.836 248.204Z" fill="#434347"/>
</g>
<defs>
<linearGradient id="paint0_linear_12371_63632" x1="60.3536" y1="310.162" x2="60.3536" y2="390.06" gradientUnits="userSpaceOnUse">
<stop stop-color="#00FFA3"/>
<stop offset="1" stop-color="#00FFA3" stop-opacity="0"/>
</linearGradient>
<linearGradient id="paint1_linear_12371_63632" x1="87.2638" y1="334.024" x2="87.2638" y2="408.278" gradientUnits="userSpaceOnUse">
<stop stop-color="#00FFA3"/>
<stop offset="1" stop-color="#00FFA3" stop-opacity="0"/>
</linearGradient>
<linearGradient id="paint2_linear_12371_63632" x1="43.7358" y1="344.411" x2="43.7358" y2="408.869" gradientUnits="userSpaceOnUse">
<stop stop-color="#00FFA3"/>
<stop offset="1" stop-color="#00FFA3" stop-opacity="0"/>
</linearGradient>
<clipPath id="clip0_12371_63632">
<rect width="500" height="475" fill="white" transform="matrix(-1 0 0 1 500 0)"/>
</clipPath>
</defs>
</svg>
