<svg width="89" height="72" viewBox="0 0 89 72" fill="none" xmlns="http://www.w3.org/2000/svg">
<path d="M89 36C89 43.7143 55.7927 72 35.9423 72C16.0919 72 0 55.8823 0 36C0 16.1177 16.0919 0 35.9423 0C55.7927 0 89 28.2857 89 36Z" fill="#00FFA3"/>
<path d="M12.97 40.29V31.575H11.05V42H17.89V40.29H12.97ZM19.9858 38.655H26.1208C26.1508 38.49 26.1658 38.19 26.1658 37.89C26.1658 35.865 24.6508 33.915 22.1608 33.915C19.8958 33.915 18.1108 35.76 18.1108 38.055C18.1108 40.41 19.7608 42.195 22.2808 42.195C24.2008 42.195 25.2508 41.385 25.8508 40.41L24.3508 39.45C23.9908 40.155 23.4208 40.56 22.3408 40.56C21.1558 40.56 20.2408 39.84 19.9858 38.655ZM19.9858 37.32C20.2258 36.105 21.0958 35.415 22.2058 35.415C23.3158 35.415 24.1258 36.135 24.3358 37.32H19.9858ZM30.8455 42H32.0905V40.335H31.2205C30.3655 40.335 29.9005 39.84 29.9005 38.925V35.73H32.0305V34.095H29.9605V32.04H28.1005V33.285C28.1005 33.825 27.8455 34.095 27.3205 34.095H26.6005V35.73H27.9805V39.135C27.9805 40.875 28.9555 42 30.8455 42ZM33.9027 31.185C33.2877 31.185 32.7777 31.665 32.7777 32.31C32.7777 32.925 33.1527 33.285 33.6927 33.36L32.8227 35.205H33.9027L34.7127 33.495C34.9227 33.03 35.0127 32.685 35.0127 32.34C35.0127 31.665 34.5177 31.185 33.9027 31.185ZM38.5773 42.18C40.5573 42.18 41.8473 41.25 41.8473 39.675C41.8473 36.78 37.5123 37.605 37.5123 36.165C37.5123 35.685 37.8873 35.385 38.5923 35.385C39.2523 35.385 39.7173 35.67 39.9273 36.27L41.5923 35.625C41.2623 34.545 40.1523 33.915 38.6223 33.915C36.7623 33.915 35.5623 34.815 35.5623 36.255C35.5623 38.97 39.8973 38.25 39.8973 39.81C39.8973 40.365 39.4173 40.68 38.6523 40.68C37.6923 40.68 37.0773 40.245 36.8523 39.51L35.1873 40.155C35.6223 41.49 36.8673 42.18 38.5773 42.18ZM53.3365 31.575H45.1315V33.285H48.2815V42H50.2015V33.285H53.3365V31.575ZM59.0167 34.095V35.22C58.4317 34.455 57.5467 34.035 56.4067 34.035C54.1417 34.035 52.4917 35.685 52.4917 38.055C52.4917 40.41 54.1417 42.18 56.4067 42.18C57.5467 42.18 58.4317 41.715 59.0167 40.935V42H60.7867V34.095H59.0167ZM56.6617 40.5C55.3567 40.5 54.3967 39.465 54.3967 38.055C54.3967 36.645 55.3567 35.61 56.6617 35.61C58.0267 35.61 58.9567 36.6 58.9567 38.055C58.9567 39.495 58.0267 40.5 56.6617 40.5ZM62.55 42H64.455V31.035H62.55V42ZM73.4118 42L69.9618 37.74L73.3518 34.095H71.1918L68.1318 37.29V31.035H66.2268V42H68.1318V38.28L71.3268 42H73.4118Z" fill="#121316"/>
</svg>
