<svg width="30" height="30" viewBox="0 0 30 30" fill="none" xmlns="http://www.w3.org/2000/svg">
<path d="M29.0502 20.4027V20.4021C29.0448 17.9159 27.4418 15.8309 25.1784 15.0692C26.4974 13.8732 27.2786 12.1818 27.2786 10.3652C27.2786 6.82067 24.3417 3.94995 20.7371 3.94995C17.6064 3.94995 14.9877 6.11857 14.3492 9.00896C10.9639 9.27405 8.12496 11.5771 7.22813 14.7813C3.8186 14.4564 0.950195 17.1196 0.950195 20.4027C0.950195 23.5198 3.53371 26.05 6.70805 26.05H23.2923C26.4608 26.05 29.0502 23.5255 29.0502 20.4027ZM15.8048 10.3652L15.8048 10.3647C15.7996 7.70662 18.0115 5.53157 20.7371 5.53157C23.4626 5.53157 25.6749 7.70662 25.6749 10.3652C25.6749 12.1516 24.6694 13.7918 23.0514 14.6314C22.7847 14.7667 22.6229 15.0372 22.6229 15.3298V16.1236H18.8568V15.3298C18.8568 15.0373 18.6951 14.7668 18.4285 14.6315C16.8047 13.7865 15.8048 12.1515 15.8048 10.3652ZM7.66673 16.4548L7.66672 16.4549L7.67034 16.4556C7.88279 16.5019 8.10501 16.4637 8.28863 16.3463C8.47224 16.229 8.60413 16.0387 8.63815 15.8131C9.12264 13.0331 11.4014 10.9466 14.2057 10.6086C14.287 12.7305 15.4278 14.6619 17.253 15.7901V16.9144C17.253 17.3547 17.6181 17.7052 18.0549 17.7052H23.4248C23.8616 17.7052 24.2267 17.3547 24.2267 16.9144V16.4414C26.0881 16.8521 27.4461 18.4607 27.4464 20.3967C27.4412 22.6396 25.5815 24.4683 23.2868 24.4683H6.70805C4.41301 24.4683 2.55397 22.6394 2.55397 20.4027C2.55397 18.1663 4.4126 16.3424 6.70805 16.3424C7.01441 16.3424 7.33753 16.378 7.66673 16.4548Z" fill="white" stroke="white" stroke-width="0.5"/>
<path d="M22.8732 18.6001H18.5268C18.2371 18.6001 18 18.8701 18 19.2001C18 19.5301 18.2371 19.8001 18.5268 19.8001H22.8732C23.1629 19.8001 23.4 19.5301 23.4 19.2001C23.4 18.8701 23.1682 18.6001 22.8732 18.6001Z" fill="url(#paint0_linear_12584_58100)"/>
<path d="M22.2605 21H19.7399C19.4431 21 19.2002 21.135 19.2002 21.3C19.2002 21.465 19.4431 21.6 19.7399 21.6H22.2605C22.5573 21.6 22.8002 21.465 22.8002 21.3C22.8002 21.135 22.5573 21 22.2605 21Z" fill="url(#paint1_linear_12584_58100)"/>
<circle cx="20.8139" cy="10.3654" r="1.98574" fill="url(#paint2_linear_12584_58100)"/>
<defs>
<linearGradient id="paint0_linear_12584_58100" x1="18" y1="19.5001" x2="23.4" y2="19.5001" gradientUnits="userSpaceOnUse">
<stop stop-color="#00FFA3"/>
<stop offset="1" stop-color="#00FFA3" stop-opacity="0.1"/>
</linearGradient>
<linearGradient id="paint1_linear_12584_58100" x1="19.2002" y1="21.45" x2="22.8002" y2="21.45" gradientUnits="userSpaceOnUse">
<stop stop-color="#00FFA3"/>
<stop offset="1" stop-color="#00FFA3" stop-opacity="0.1"/>
</linearGradient>
<linearGradient id="paint2_linear_12584_58100" x1="18.8281" y1="11.3583" x2="22.7996" y2="11.3583" gradientUnits="userSpaceOnUse">
<stop stop-color="#00FFA3"/>
<stop offset="1" stop-color="#00FFA3" stop-opacity="0.1"/>
</linearGradient>
</defs>
</svg>
