<svg width="40" height="40" viewBox="0 0 40 40" fill="none" xmlns="http://www.w3.org/2000/svg">
<circle cx="20" cy="20" r="20" fill="white"/>
<path d="M23.5942 19.4493V20.4645H26.4784C26.0048 23.4143 23.5326 25.6727 20.5536 25.6727C17.2384 25.6727 14.5436 22.8798 14.5436 19.4493C14.5436 16.0164 17.2408 13.2259 20.5536 13.2259C20.7194 13.2259 20.8828 13.2381 21.0438 13.2528V9.85914C20.8804 9.85179 20.7194 9.83462 20.5536 9.83462C16.1088 9.83462 12.4005 13.0689 11.4888 17.3846H9.69625C10.6387 12.0636 15.1474 8.01762 20.5536 8.01762V7C14.2547 7 9.0924 12.017 8.57617 18.3998H12.3176C12.8007 14.3195 16.0496 11.1195 20.0611 10.8743V12.2328C16.4309 12.4951 13.5609 15.6191 13.5609 19.4468C13.5609 23.4462 16.6914 26.6879 20.5536 26.6879C24.4159 26.6879 27.5464 23.4462 27.5464 19.4468H23.5942V19.4493Z" fill="#121316"/>
<path d="M12.4501 21.3152H8.66602C9.35511 26.06 12.6348 29.9196 16.9636 31.3222V33.9999H17.9439V30.5522C14.0083 29.5616 10.8896 26.3837 9.86897 22.3304H11.6995C12.8456 26.1066 16.175 28.875 20.1604 29.0466V31.2756H21.1407V28.0168C20.9442 28.0315 20.7477 28.0486 20.5487 28.0486C16.5918 28.0486 13.2766 25.1625 12.4501 21.3152Z" fill="#121316"/>
<path d="M31.5282 18.9834H30.5336C30.5407 19.1452 30.5573 19.3046 30.5573 19.4689C30.5573 23.1127 28.7387 26.3225 25.9941 28.1861V29.3876C29.307 27.4113 31.5377 23.7135 31.5377 19.4689C31.54 19.3071 31.5353 19.1428 31.5282 18.9834Z" fill="#121316"/>
<path d="M22.2372 18.1741C21.6475 17.7303 21.4155 17.9534 21.3255 18.1373C21.2852 18.2256 21.1976 18.2796 21.1076 18.2796C21.0982 18.2796 21.0911 18.2796 21.0816 18.2771C20.9608 18.2649 20.8661 18.1619 20.8637 18.0368C20.8495 17.5121 21.181 16.9849 21.181 16.9849C21.6049 17.3012 21.9672 17.7082 22.2372 18.1741Z" fill="#00FFA3"/>
<path d="M22.7829 20.2193C22.7829 20.6926 22.7047 21.1462 22.5579 21.5655C22.4348 21.3498 22.3898 21.0923 22.3756 20.8667C22.3613 20.6166 22.1435 20.4278 21.9043 20.467C21.8996 20.467 21.8948 20.4694 21.8901 20.4694C21.5586 20.5185 21.2531 20.2757 21.2105 19.9324C21.1892 19.778 21.1844 19.6382 21.1892 19.5107C21.1892 19.5107 21.2365 18.9026 21.516 18.6108C21.5728 18.5519 21.6202 18.5053 21.6652 18.4734C21.7267 18.4269 21.8049 18.4072 21.8806 18.417C22.1553 18.4538 22.3613 18.4048 22.3613 18.4048C22.6313 18.9516 22.7829 19.5671 22.7829 20.2193Z" fill="#00FFA3"/>
<path d="M19.5563 16.8942L19.0922 17.5219C19.0306 17.0413 18.4812 16.6294 18.6257 16.6416C19.3527 16.7054 19.5563 16.8942 19.5563 16.8942Z" fill="#00FFA3"/>
<path d="M18.5941 17.5587C18.7409 17.7623 18.6699 18.0541 18.4449 18.1595C18.1039 18.3213 17.6374 18.5764 17.4243 18.851C17.3343 18.9662 17.1875 19.0177 17.0478 18.9834C16.8726 18.9368 16.6523 18.9417 16.5197 19.1796C16.2782 19.6185 17.2159 20.1212 17.1615 20.6827C17.1615 20.6802 17.1615 20.6778 17.1591 20.6778C17.1259 20.5405 17.0336 20.4277 16.9057 20.3713C16.5766 20.2242 16.2806 19.9961 16.0935 19.643C15.6838 18.8706 15.9751 17.9511 16.2616 17.3528C16.6168 16.9972 17.036 16.7152 17.5025 16.5215C17.5048 16.519 18.1442 16.931 18.5941 17.5587Z" fill="#00FFA3"/>
<path d="M19.4946 21.4062C19.8546 21.6318 19.9398 22.137 19.6722 22.4729C19.523 22.6617 19.3502 22.8652 19.1773 23.0614L18.5782 23.7186C18.294 24.0251 18.1851 24.1281 18.1851 24.1281C17.8275 23.591 17.9554 22.571 17.9554 22.571L17.5812 22.2988C17.3066 22.1002 17.155 21.7618 17.1953 21.416C17.2308 21.0948 17.2 20.8447 17.1621 20.678C17.4794 20.575 17.8015 20.5235 18.0288 20.499C18.2064 20.4793 18.3816 20.5406 18.5095 20.6681C18.7629 20.9232 19.1584 21.1953 19.4946 21.4062Z" fill="#00FFA3"/>
</svg>
