<svg width="18" height="18" viewBox="0 0 18 18" fill="none" xmlns="http://www.w3.org/2000/svg">
<g clip-path="url(#clip0_10551_5876)">
<path d="M3.70127 6.83789C2.9001 6.83895 2.25106 7.48812 2.25 8.28916V14.094C2.25 14.8955 2.8997 15.5452 3.70127 15.5452C4.5027 15.5452 5.1524 14.8955 5.1524 14.094V8.28916C5.15147 7.48812 4.5023 6.83895 3.70127 6.83789Z" fill="#8D8F98"/>
<path d="M15.3277 7.48854C14.9836 7.07587 14.4739 6.83751 13.9366 6.83804H11.8008C12.1289 5.49453 11.9666 4.14317 11.3545 3.29365C11.0224 2.79554 10.4663 2.49301 9.86778 2.48438C9.02104 2.48438 9.02104 3.2688 9.02104 3.84131C9.02104 4.97012 8.77936 6.83804 6.15185 7.57424C5.99135 7.61636 5.87868 7.76051 5.87695 7.92646V13.7335C5.87815 14.7337 6.68862 15.5442 7.68882 15.5454H13.0125C13.8881 15.5454 14.6383 14.9192 14.7948 14.0578L15.7195 8.97369C15.816 8.44503 15.6725 7.90082 15.3277 7.48854Z" fill="#8D8F98"/>
</g>
<defs>
<clipPath id="clip0_10551_5876">
<rect width="13.5" height="13.5" fill="white" transform="translate(2.25 2.25)"/>
</clipPath>
</defs>
</svg>
