<svg width="90" height="90" viewBox="0 0 90 90" fill="none" xmlns="http://www.w3.org/2000/svg">
<path d="M56.7542 41.4976V44.8814H66.6938C65.0617 54.7143 56.542 62.2423 46.2761 62.2423C34.8513 62.2423 25.5646 52.9325 25.5646 41.4976C25.5646 30.0545 34.8595 20.7529 46.2761 20.7529C46.8473 20.7529 47.4104 20.7937 47.9653 20.8428V9.53046C47.4022 9.50594 46.8473 9.44873 46.2761 9.44873C30.9587 9.44873 18.1793 20.2298 15.0375 34.6154H8.85994C12.1078 16.8786 27.6455 3.39206 46.2761 3.39206V0C24.569 0 6.779 16.7233 5 37.9992H17.8937C19.5584 24.3983 30.7547 13.7317 44.5787 12.9143V17.4425C32.0685 18.3171 22.178 28.7303 22.178 41.4894C22.178 54.8206 32.9662 65.6261 46.2761 65.6261C59.5859 65.6261 70.3742 54.8206 70.3742 41.4894H56.7542V41.4976Z" fill="white"/>
<path d="M18.3511 47.7178H5.31055C7.68527 63.5338 18.9876 76.3991 33.9051 81.0744V90H37.2836V78.5079C23.7208 75.2057 12.9733 64.6127 9.45611 51.1017H15.7642C19.7139 63.6891 31.1877 72.9171 44.9219 73.4893V80.9191H48.3003V70.0563C47.623 70.1054 46.9457 70.1626 46.2602 70.1626C32.6239 70.1626 21.1991 60.5422 18.3511 47.7178Z" fill="white"/>
<path d="M84.0927 39.9446H80.6653C80.6897 40.484 80.7469 41.0153 80.7469 41.563C80.7469 53.709 74.4796 64.4083 65.0215 70.6202V74.6253C76.4381 68.0374 84.1253 55.7115 84.1253 41.563C84.1335 41.0235 84.1172 40.4759 84.0927 39.9446Z" fill="white"/>
<path d="M52.0784 37.2472C50.0464 35.7677 49.2467 36.5115 48.9366 37.1246C48.7979 37.4188 48.4959 37.5986 48.1858 37.5986C48.1532 37.5986 48.1287 37.5986 48.0961 37.5905C47.6799 37.5496 47.3534 37.2063 47.3453 36.7894C47.2963 35.0403 48.4388 33.283 48.4388 33.283C49.8995 34.3374 51.1481 35.6942 52.0784 37.2472Z" fill="#00FFA3"/>
<path d="M53.9568 44.0641C53.9568 45.6416 53.6875 47.1538 53.1816 48.5514C52.7572 47.8322 52.6022 46.9739 52.5532 46.222C52.5042 45.3882 51.7535 44.7589 50.9293 44.8897C50.9129 44.8897 50.8966 44.8978 50.8803 44.8978C49.7378 45.0613 48.6851 44.2521 48.5382 43.1078C48.4648 42.5929 48.4484 42.127 48.4648 41.7019C48.4648 41.7019 48.628 39.6749 49.5909 38.7022C49.7868 38.506 49.95 38.3507 50.105 38.2445C50.3172 38.0892 50.5865 38.0238 50.8476 38.0565C51.7943 38.1791 52.5042 38.0156 52.5042 38.0156C53.4345 39.8383 53.9568 41.8899 53.9568 44.0641Z" fill="#00FFA3"/>
<path d="M42.8409 32.9805L41.2415 35.0729C41.0293 33.4709 39.1361 32.0977 39.6338 32.1386C42.1391 32.3511 42.8409 32.9805 42.8409 32.9805Z" fill="#00FFA3"/>
<path d="M39.5198 35.1955C40.0257 35.8739 39.7809 36.8466 39.0056 37.1981C37.8305 37.7375 36.2229 38.5876 35.4884 39.503C35.1783 39.8872 34.6724 40.0588 34.1909 39.9444C33.587 39.7891 32.8281 39.8055 32.3711 40.5983C31.5387 42.0614 34.7703 43.737 34.5826 45.6087C34.5826 45.6006 34.5826 45.5924 34.5745 45.5924C34.4602 45.1347 34.142 44.7587 33.7013 44.5707C32.567 44.0803 31.5469 43.3201 30.9022 42.1431C29.4904 39.5684 30.4942 36.5033 31.4816 34.5089C32.7057 33.3238 34.1501 32.3838 35.7577 31.7381C35.7659 31.7299 37.9693 33.1031 39.5198 35.1955Z" fill="#00FFA3"/>
<path d="M42.6299 48.0201C43.8703 48.7721 44.1641 50.4559 43.242 51.5756C42.7279 52.205 42.1321 52.8834 41.5364 53.5373L39.4718 55.7279C38.4925 56.7496 38.1172 57.0928 38.1172 57.0928C36.8849 55.3028 37.3256 51.9026 37.3256 51.9026L36.0362 50.9953C35.0896 50.3333 34.5673 49.2053 34.706 48.0528C34.8285 46.9821 34.7224 46.1483 34.5918 45.5925C35.6853 45.2492 36.7951 45.0776 37.5786 44.9959C38.1906 44.9305 38.7945 45.1348 39.2352 45.5598C40.1083 46.4099 41.4711 47.3172 42.6299 48.0201Z" fill="#00FFA3"/>
</svg>
