<svg width="40" height="40" viewBox="0 0 40 40" fill="none" xmlns="http://www.w3.org/2000/svg">
<g clip-path="url(#clip0_14282_65589)">
<path opacity="0.1" d="M34.1803 34.1421C41.9908 26.3316 41.9908 13.6684 34.1803 5.85786C26.3698 -1.95262 13.7065 -1.95262 5.89604 5.85786C-1.91444 13.6684 -1.91444 26.3316 5.89604 34.1421C13.7065 41.9526 26.3698 41.9526 34.1803 34.1421Z" fill="#00FFA3"/>
<path fill-rule="evenodd" clip-rule="evenodd" d="M27.184 18.5538L16.4494 12.2232C16.2012 12.0769 15.9197 12 15.6331 12C15.3466 12 15.0651 12.0771 14.8169 12.2234C14.5687 12.3697 14.3626 12.5801 14.2192 12.8336C14.0758 13.087 14.0002 13.3745 14 13.6672V26.3296C13.9984 26.6227 14.0731 26.911 14.2165 27.1648C14.3599 27.4187 14.5668 27.629 14.8161 27.7742C15.0639 27.9221 15.3457 28 15.6327 28C15.9197 28 16.2016 27.9221 16.4494 27.7742L27.184 21.4429C27.4321 21.2964 27.6382 21.0858 27.7814 20.8323C27.9246 20.5787 28 20.2911 28 19.9984C28 19.7057 27.9246 19.4181 27.7814 19.1645C27.6382 18.911 27.4321 18.7004 27.184 18.5539V18.5538Z" fill="#00FFA3"/>
</g>
<defs>
<clipPath id="clip0_14282_65589">
<rect width="40" height="40" fill="white"/>
</clipPath>
</defs>
</svg>
