<svg width="30" height="30" viewBox="0 0 30 30" fill="none" xmlns="http://www.w3.org/2000/svg">
<path d="M11.2504 16.25C10.4254 16.6625 9.73789 17.275 9.22539 18.0375C8.93789 18.475 8.93789 19.025 9.22539 19.4625C9.73789 20.225 10.4254 20.8375 11.2504 21.25" stroke="url(#paint0_linear_11256_25205)" stroke-width="2" stroke-linecap="round" stroke-linejoin="round"/>
<path d="M19.0127 16.25C19.8377 16.6625 20.5252 17.275 21.0377 18.0375C21.3252 18.475 21.3252 19.025 21.0377 19.4625C20.5252 20.225 19.8377 20.8375 19.0127 21.25" stroke="url(#paint1_linear_11256_25205)" stroke-width="2" stroke-linecap="round" stroke-linejoin="round"/>
<path d="M11.25 27.5H18.75C25 27.5 27.5 25 27.5 18.75V11.25C27.5 5 25 2.5 18.75 2.5H11.25C5 2.5 2.5 5 2.5 11.25V18.75C2.5 25 5 27.5 11.25 27.5Z" stroke="white" stroke-width="2" stroke-linecap="round" stroke-linejoin="round"/>
<path d="M2.78711 10.0125L26.8121 10" stroke="white" stroke-width="2" stroke-linecap="round" stroke-linejoin="round"/>
<defs>
<linearGradient id="paint0_linear_11256_25205" x1="8" y1="19" x2="12" y2="19" gradientUnits="userSpaceOnUse">
<stop stop-color="#00FFA3"/>
<stop offset="1" stop-color="#00FFA3" stop-opacity="0"/>
</linearGradient>
<linearGradient id="paint1_linear_11256_25205" x1="22.5" y1="19" x2="17.5" y2="19" gradientUnits="userSpaceOnUse">
<stop stop-color="#00FFA3"/>
<stop offset="1" stop-color="#00FFA3" stop-opacity="0"/>
</linearGradient>
</defs>
</svg>
