<svg width="652" height="472" viewBox="0 0 652 472" fill="none" xmlns="http://www.w3.org/2000/svg">
<mask id="mask0_10059_1160" style="mask-type:alpha" maskUnits="userSpaceOnUse" x="0" y="0" width="652" height="472">
<rect x="651.36" y="472" width="651.36" height="472" transform="rotate(-180 651.36 472)" fill="#C4C4C4"/>
</mask>
<g mask="url(#mask0_10059_1160)">
<g opacity="0.1">
<circle cx="621.647" cy="-105.974" r="615.497" transform="rotate(-180 621.647 -105.974)" stroke="url(#paint0_linear_10059_1160)"/>
<circle cx="621.648" cy="-105.973" r="425.784" transform="rotate(-180 621.648 -105.973)" stroke="url(#paint1_linear_10059_1160)"/>
<circle cx="621.648" cy="-105.973" r="278.356" transform="rotate(-180 621.648 -105.973)" stroke="url(#paint2_linear_10059_1160)"/>
<circle cx="621.648" cy="-105.974" r="137.785" transform="rotate(-180 621.648 -105.974)" stroke="url(#paint3_linear_10059_1160)"/>
</g>
</g>
<circle cx="362.5" cy="121.5" r="3.5" transform="rotate(-180 362.5 121.5)" fill="#00FFA3"/>
<circle cx="279.5" cy="278.5" r="5.5" transform="rotate(-180 279.5 278.5)" fill="#FF317B"/>
<defs>
<linearGradient id="paint0_linear_10059_1160" x1="1237.64" y1="-137.974" x2="537.648" y2="-721.971" gradientUnits="userSpaceOnUse">
<stop stop-color="white"/>
<stop offset="1" stop-color="white" stop-opacity="0"/>
</linearGradient>
<linearGradient id="paint1_linear_10059_1160" x1="1047.93" y1="-128.118" x2="563.518" y2="-532.257" gradientUnits="userSpaceOnUse">
<stop stop-color="white"/>
<stop offset="1" stop-color="white" stop-opacity="0"/>
</linearGradient>
<linearGradient id="paint2_linear_10059_1160" x1="900.503" y1="-120.459" x2="583.622" y2="-384.829" gradientUnits="userSpaceOnUse">
<stop stop-color="white"/>
<stop offset="1" stop-color="white" stop-opacity="0"/>
</linearGradient>
<linearGradient id="paint3_linear_10059_1160" x1="759.933" y1="-113.157" x2="602.791" y2="-244.259" gradientUnits="userSpaceOnUse">
<stop stop-color="white"/>
<stop offset="1" stop-color="white" stop-opacity="0"/>
</linearGradient>
</defs>
</svg>
