<svg width="30" height="30" viewBox="0 0 30 30" fill="none" xmlns="http://www.w3.org/2000/svg">
<path d="M11.1621 2.5L11.1996 4.41254C11.2246 5.42504 12.0621 6.25 13.0746 6.25H16.8496C17.8871 6.25 18.7246 5.4 18.7246 4.375V2.5" stroke="url(#paint0_linear_11256_25143)" stroke-width="2" stroke-linecap="round" stroke-linejoin="round"/>
<path d="M21.25 21.25L18.75 23.75L21.25 26.25" stroke="url(#paint1_linear_11256_25143)" stroke-width="2" stroke-miterlimit="10" stroke-linecap="round" stroke-linejoin="round"/>
<path d="M25 21.25L27.5 23.75L25 26.25" stroke="url(#paint2_linear_11256_25143)" stroke-width="2" stroke-miterlimit="10" stroke-linecap="round" stroke-linejoin="round"/>
<path d="M16.25 27.5H10C5.625 27.5 3.75 25 3.75 21.25V8.75C3.75 5 5.625 2.5 10 2.5H20C24.375 2.5 26.25 5 26.25 8.75V17.5" stroke="white" stroke-width="2" stroke-miterlimit="10" stroke-linecap="round" stroke-linejoin="round"/>
<defs>
<linearGradient id="paint0_linear_11256_25143" x1="7.75396" y1="4.5625" x2="21.2547" y2="4.5625" gradientUnits="userSpaceOnUse">
<stop stop-color="#00FFA3"/>
<stop offset="1" stop-color="#00FFA3" stop-opacity="0"/>
</linearGradient>
<linearGradient id="paint1_linear_11256_25143" x1="17.5" y1="24" x2="22.5" y2="24" gradientUnits="userSpaceOnUse">
<stop stop-color="#00FFA3"/>
<stop offset="1" stop-color="#00FFA3" stop-opacity="0"/>
</linearGradient>
<linearGradient id="paint2_linear_11256_25143" x1="28.5" y1="23.5" x2="23.5" y2="23.5" gradientUnits="userSpaceOnUse">
<stop stop-color="#00FFA3"/>
<stop offset="1" stop-color="#00FFA3" stop-opacity="0"/>
</linearGradient>
</defs>
</svg>
