<svg width="203" height="184" viewBox="0 0 203 184" fill="none" xmlns="http://www.w3.org/2000/svg">
<ellipse cx="105.988" cy="98.6191" rx="84.7889" ry="84.7937" fill="#00CE60" fill-opacity="0.1"/>
<path fill-rule="evenodd" clip-rule="evenodd" d="M106.368 67.4766C108.432 87.5995 96.6052 95.9921 93.2539 97.9448C93.2816 98.1525 93.2955 98.3741 93.2955 98.5957V127.305L98.8071 130.338H127.792C127.847 130.338 127.916 130.338 127.972 130.352C134.647 131.266 134.91 123.372 134.91 122.389C134.868 121.89 135.145 121.391 135.63 121.184C139.812 119.383 138.04 113.733 137.873 113.248C137.652 112.68 137.915 112.029 138.469 111.752C143.897 109.121 140.477 104.385 140.034 103.789C139.674 103.401 139.618 102.806 139.909 102.335C149.741 87.2532 119.026 90.9787 117.059 91.2279C116.907 91.2556 116.741 91.2695 116.575 91.2279C115.924 91.1033 115.508 90.4801 115.633 89.8292C120.217 66.6041 109.65 66.8534 106.341 67.4489L106.368 67.4766Z" fill="#00CE60"/>
<path fill-rule="evenodd" clip-rule="evenodd" d="M91.3298 127.651V98.5959C91.3298 97.9034 91.0528 97.2802 90.5958 96.837C90.1388 96.38 89.5156 96.103 88.8371 96.103H73.4654C72.7729 96.103 72.1498 96.38 71.7066 96.837C71.2496 97.2941 70.9727 97.9173 70.9727 98.5959V127.651C70.9727 128.344 71.2496 128.967 71.7066 129.41C72.1636 129.867 72.7868 130.144 73.4654 130.144H88.8371C89.5295 130.144 90.1527 129.867 90.5958 129.41C90.9697 129.036 91.219 128.552 91.3021 128.011C91.3021 127.928 91.3021 127.831 91.3298 127.748C91.3298 127.721 91.3298 127.679 91.3298 127.651Z" fill="#00CE60"/>
<g opacity="0.5">
<path opacity="0.1" d="M127.891 6.49602C127.097 6.27897 126.307 6.28773 125.403 6.29775C125.177 6.30025 124.952 6.30276 124.726 6.30526C125.844 5.27656 126.962 4.24787 127.739 2.99712C127.961 2.65589 127.505 2.32217 127.282 2.55049C125.938 3.58169 124.708 4.72454 123.478 5.8674C123.462 4.39959 123.446 2.93178 123.429 1.46398C123.422 0.786527 122.405 0.797796 122.413 1.47525C122.429 2.94305 122.447 4.52377 122.463 5.99158C121.435 4.98667 120.409 4.09467 119.382 3.20267C118.927 2.86896 118.368 3.43976 118.824 3.77348C119.624 4.66798 120.425 5.56248 121.339 6.45573C120.209 6.46825 119.08 6.48077 117.952 6.6062C117.5 6.61121 117.507 7.28866 117.959 7.28365C119.316 7.38153 120.558 7.36776 121.8 7.35399C120.794 8.26852 119.789 9.29597 118.896 10.3222C118.45 10.7788 119.134 11.3358 119.582 10.9921C120.588 10.0776 121.596 9.27593 122.489 8.36265C122.503 9.60464 122.518 10.9595 122.758 12.199C122.76 12.4248 123.212 12.4198 123.322 12.1928C123.536 11.0612 123.522 9.81919 123.508 8.5772C123.85 8.79926 124.079 9.13548 124.421 9.35754C125.104 9.91457 125.788 10.4716 126.471 10.9157C126.699 11.139 127.035 10.7966 126.806 10.5732C126.234 9.90205 125.775 9.22961 125.202 8.55842C124.859 8.11054 124.403 7.77682 124.06 7.44185C124.625 7.43559 125.077 7.43059 125.642 7.42433C126.545 7.41431 127.223 7.4068 128.124 7.17096C128.236 7.0568 128.231 6.60517 127.891 6.49602Z" fill="#171416"/>
<path opacity="0.1" d="M11.0699 63.4747C10.2768 63.2577 9.48618 63.2665 8.58263 63.2765C8.35675 63.279 8.13086 63.2815 7.90498 63.284C9.02314 62.2553 10.1413 61.2266 10.9181 59.9758C11.1403 59.6346 10.6847 59.3009 10.4614 59.5292C9.00312 60.4488 7.77451 61.7045 6.54466 62.8474C6.52839 61.3796 6.51212 59.9118 6.49585 58.444C6.48834 57.7665 5.47185 57.7778 5.47936 58.4552C5.49563 59.923 5.51315 61.5037 5.52942 62.9716C4.50167 61.9666 3.47518 61.0747 2.44868 60.1827C1.99315 59.8489 1.4347 60.4197 1.89022 60.7535C2.69083 61.648 3.49145 62.5425 4.405 63.4357C3.27557 63.4482 2.14614 63.4607 1.01797 63.5862C0.566195 63.5912 0.573704 64.2686 1.02548 64.2636C2.38204 64.3615 3.62441 64.3477 4.86678 64.334C3.86031 65.2485 2.85509 66.2759 1.96281 67.3021C1.51604 67.7588 2.19996 68.3158 2.64798 67.9721C3.65445 67.0575 4.66217 66.2559 5.5557 65.3426C5.56947 66.5846 5.58449 67.9395 5.82414 69.179C5.82665 69.4048 6.27842 69.3998 6.38886 69.1727C6.60223 68.0412 6.58846 66.7992 6.57469 65.5572C6.91602 65.7792 7.14566 66.1155 7.487 66.3375C8.17091 66.8945 8.85483 67.4516 9.53749 67.8957C9.76588 68.119 10.101 67.7765 9.87256 67.5532C9.30034 66.882 8.84106 66.2096 8.26884 65.5384C7.925 65.0905 7.46948 64.7568 7.12689 64.4218C7.69161 64.4156 8.14338 64.4106 8.70809 64.4043C9.61163 64.3943 10.2893 64.3868 11.1903 64.1509C11.302 64.0368 11.297 63.5851 11.0699 63.4747Z" fill="#171416"/>
<path d="M30.0864 26.113C28.8365 25.4493 27.6996 24.7844 26.7835 23.6653C25.7532 22.4346 25.2852 20.9718 24.5913 19.5115C24.5913 19.5115 24.59 19.3986 24.4771 19.3999L24.3641 19.4011C24.3641 19.4011 24.3641 19.4011 24.2524 19.5153C24.2524 19.5153 24.2524 19.5153 24.2537 19.6282C23.9487 22.6805 22.1654 24.8458 19.9278 26.7902C19.8161 26.9044 19.8186 27.1302 19.9328 27.2419C22.43 28.3434 24.158 31.3732 24.9761 33.8484C25.0916 34.0729 25.4304 34.0692 25.5408 33.8421C25.9763 32.3693 26.3001 31.0106 27.0757 29.647C27.8513 28.2833 28.8565 27.2559 30.0901 26.4517C30.2018 26.3376 30.1993 26.1118 30.0864 26.113Z" fill="#00CE60"/>
<path d="M202.661 59.9837C201.411 59.32 200.274 58.6551 199.471 57.5347C198.441 56.304 197.973 54.8412 197.279 53.3809C197.279 53.3809 197.278 53.268 197.165 53.2693L197.052 53.2705C197.052 53.2705 197.052 53.2705 196.94 53.3847C196.94 53.3847 196.94 53.3847 196.941 53.4976C196.636 56.5499 194.853 58.7152 192.615 60.6596C192.504 60.7738 192.506 60.9996 192.62 61.1113C195.118 62.2128 196.845 65.2425 197.664 67.7178C197.779 67.9423 198.118 67.9386 198.228 67.7115C198.664 66.2387 198.988 64.88 199.763 63.5164C200.539 62.1527 201.544 61.1253 202.778 60.3211C202.778 60.3211 202.775 60.0953 202.661 59.9837Z" fill="#00CE60"/>
<path d="M119.9 32.2189C118.991 31.7772 118.309 31.3331 117.622 30.5503C116.935 29.6545 116.584 28.6421 116.008 27.6322C116.008 27.6322 116.008 27.6322 115.896 27.6334L115.783 27.6347C115.783 27.6347 115.783 27.6347 115.784 27.7476C115.582 29.8954 114.356 31.3769 112.789 32.7494C112.678 32.8635 112.679 32.9764 112.792 32.9752C114.608 33.7455 115.761 35.8782 116.345 37.5656C116.347 37.7914 116.686 37.7877 116.683 37.5618C116.898 36.5432 117.226 35.5232 117.78 34.6137C118.335 33.7042 119.005 33.0192 119.902 32.4447C120.015 32.4434 120.013 32.2176 119.9 32.2189Z" fill="#00CE60"/>
<path d="M91.0922 52.3554C89.5024 51.5826 88.2513 50.806 87.2199 49.4624C85.96 47.8955 85.3766 46.2081 84.566 44.4103C84.566 44.4103 84.5648 44.2974 84.4518 44.2987L84.3389 44.2999C84.3389 44.2999 84.2259 44.3012 84.2272 44.4141L84.2284 44.527C83.8168 48.1451 81.701 50.8787 79.0156 53.1669C78.9039 53.281 78.9076 53.6197 79.1335 53.6172C82.1978 54.9383 84.2707 58.5289 85.208 61.5674C85.3247 61.9048 85.7764 61.8998 85.8856 61.5599C86.3186 59.8612 86.8645 58.1613 87.7505 56.5706C88.6364 54.9799 89.865 53.7241 91.4361 52.8033C91.2102 52.8058 91.3194 52.4659 91.0922 52.3554Z" fill="#00CE60"/>
<path d="M64.006 23.9176C62.3998 21.6769 60.7949 19.5492 58.742 17.7652C57.6027 16.8745 56.4633 15.9837 55.2135 15.32C54.5321 14.9888 53.852 14.7705 53.1706 14.4393C52.8305 14.3302 52.4905 14.221 52.1492 13.9989C51.8091 13.8898 51.5807 13.6665 51.2432 13.7831C51.0173 13.7857 50.9056 13.8998 51.0211 14.1244C51.1403 14.6877 51.8216 15.0189 52.2771 15.3526C52.8468 15.798 53.4153 16.1304 53.9849 16.5758C55.1231 17.3536 56.2624 18.2444 57.2889 19.1364C59.2288 20.9216 60.8312 22.8236 62.3232 24.9525C63.0121 25.9612 64.6961 25.0391 64.006 23.9176Z" fill="#1E2875"/>
<path d="M63.2056 69.2207C62.2784 67.0854 60.1201 65.9802 57.9642 65.1007C55.8084 64.2212 53.3151 63.4584 51.0601 63.8222C48.9168 64.0718 46.5602 65.4529 45.7921 67.4941C45.2437 68.9681 44.7028 71.1196 46.0706 72.2337C46.7557 72.9036 47.9993 73.0028 48.6694 72.3178C49.7875 71.2891 48.7535 69.7197 47.8413 68.9393C44.0768 65.5934 37.7586 66.228 33.6012 68.1938C31.0162 69.3517 28.7788 71.2962 27.4523 73.9081C26.3455 75.9529 25.1432 79.5798 26.6352 81.7088C26.8648 82.045 27.3165 82.04 27.5387 81.6988C28.7622 79.9914 28.7347 77.5074 29.6181 75.6908C30.5003 73.7614 31.951 72.1644 33.6338 71.1294C37.1098 68.8324 43.0829 67.637 46.7244 70.0809C47.1799 70.4146 48.431 71.1912 47.7609 71.8762C47.2024 72.447 46.2927 71.8925 45.9489 71.4446C44.5661 68.9756 47.8112 66.2295 49.8378 65.6425C51.8644 65.0554 54.2423 65.5936 56.171 66.3627C58.3243 67.0164 60.8227 68.2308 62.085 70.0236C62.6522 70.2431 63.4378 69.7827 63.2056 69.2207Z" fill="#FF6C00"/>
<path d="M162.352 51.2838C162.465 51.2826 162.463 51.1697 162.35 51.1709C162.237 51.1722 162.239 51.2851 162.352 51.2838Z" fill="#373536"/>
<path d="M163.348 49.353C165.228 45.7187 169.138 41.836 173.558 43.142C175.144 43.5761 177.193 45.0214 176.99 47.0563C176.892 48.4124 175.3 47.5267 174.73 46.9684C173.358 45.5156 174.007 42.9112 174.44 41.2126C175.092 38.9469 176.537 36.7854 178.442 35.4092C180.009 34.1497 182.149 33.5613 184.066 33.3142C186.209 33.0646 188.137 33.7208 190.175 34.1499C190.966 34.254 191.521 33.3445 190.95 32.7862C189.464 31.2218 186.864 31.0248 184.834 31.2731C182.691 31.5227 180.438 32.1123 178.645 33.3743C175.057 35.7855 172.403 40.8964 172.79 45.1832C173.037 47.1001 175.561 50.6856 177.685 48.6295C178.691 47.7149 178.333 46.0251 177.869 44.901C177.06 43.2161 175.24 42.1071 173.541 41.6742C168.444 40.3757 164.539 44.71 162.667 49.0218C162.557 49.3618 163.126 49.6942 163.348 49.353Z" fill="#FF6C00"/>
<path d="M65.6416 44.6893C64.0354 42.4486 61.9838 40.7775 59.5996 39.6747C58.3511 39.124 57.1038 38.6861 55.859 38.4741C54.7271 38.2608 53.0318 38.1666 52.0216 38.7424C51.797 38.8579 51.8007 39.1966 52.0291 39.4199C52.9389 39.9744 54.2954 40.0723 55.3143 40.2869C56.5604 40.6118 57.5805 40.9393 58.7162 41.4913C60.8732 42.4837 62.9223 43.929 64.4105 45.7192C64.9827 46.3904 66.215 45.4734 65.6416 44.6893Z" fill="#1E2875"/>
<path d="M39.866 52.541C40.88 52.3039 42.0082 52.1784 43.0247 52.1672C43.5894 52.1609 44.1541 52.1547 44.7188 52.1484C45.0576 52.1446 45.3965 52.1409 45.6211 52.0255C45.8457 51.9101 46.0716 51.9075 46.2962 51.7921C46.5209 51.6767 46.5171 51.338 46.29 51.2276C46.0629 51.1172 45.8357 51.0068 45.7215 50.8951C45.4944 50.7847 45.0426 50.7897 44.8155 50.6793C44.2508 50.6856 43.686 50.6918 43.0096 50.8123C41.8815 50.9377 40.7545 51.176 39.6289 51.5273C38.9525 51.6477 39.1896 52.6614 39.866 52.541Z" fill="#1E2875"/>
<path d="M160.18 79.4256C163.321 77.4711 166.691 75.8528 170.294 74.7965C171.983 74.3261 173.785 73.8545 175.589 73.6086C176.604 73.4844 177.507 73.3615 178.522 73.2373C179.312 73.2286 180.103 73.2198 180.777 72.8736C181.001 72.7582 180.998 72.4194 180.771 72.309C179.976 71.9791 179.187 72.1008 178.284 72.1108C177.267 72.122 176.365 72.245 175.348 72.2562C173.43 72.3904 171.514 72.7504 169.599 73.2233C165.769 74.1692 162.4 75.9004 159.265 78.4194C158.818 78.876 159.506 79.7718 160.18 79.4256Z" fill="#1E2875"/>
<path d="M153.913 74.1875C156.592 71.3348 160.072 69.3765 163.439 67.4195C165.123 66.4975 166.918 65.4613 168.717 64.6509C169.728 64.188 170.627 63.7263 171.525 63.2647C172.424 62.803 173.438 62.566 174.335 61.9914C174.559 61.876 174.556 61.5373 174.216 61.4281C173.31 61.2123 172.297 61.5623 171.395 61.6852C170.267 61.8107 169.254 62.1607 168.242 62.6236C166.22 63.5494 164.198 64.5881 162.291 65.7384C158.586 67.8121 155.335 69.9937 152.775 73.4097C152.329 73.9793 153.353 74.6454 153.913 74.1875Z" fill="#1E2875"/>
<path d="M135.362 20.7552C135.245 20.4177 135.242 20.079 135.124 19.6286C135.121 19.4028 135.007 19.2912 135.006 19.1783C135.004 19.0654 135.003 18.9524 134.889 18.8408C134.888 18.7279 134.775 18.7291 134.774 18.6162C134.659 18.5046 134.545 18.3929 134.432 18.3942C134.319 18.3954 134.208 18.5096 134.096 18.6237C134.097 18.7366 133.984 18.7379 133.985 18.8508C133.987 18.9637 133.988 19.0766 133.989 19.1895C133.992 19.4153 133.994 19.6412 134.11 19.8657C134.113 20.2045 134.23 20.5419 134.347 20.8794L134.346 20.7665L134.347 20.8794C134.348 20.9923 134.464 21.2169 134.578 21.3285C134.692 21.4402 134.919 21.5506 135.031 21.4364C135.144 21.4352 135.368 21.3198 135.367 21.2069C135.367 21.2069 135.365 20.981 135.362 20.7552Z" fill="#171416"/>
<path d="M140.055 36.9641C140.135 34.0273 141.01 31.4204 141.996 28.6993C142.546 27.3381 143.097 26.0899 143.761 24.8404C144.425 23.5909 145.091 22.5672 145.415 21.2085C145.412 20.9827 145.183 20.6465 144.959 20.8748C144.4 21.3327 144.065 21.6752 143.619 22.2447C143.287 22.813 142.955 23.4942 142.623 24.0625C141.96 25.4249 141.297 26.7874 140.749 28.2614C139.763 30.9825 139.232 34.0373 139.151 36.9741C139.27 37.5374 140.061 37.5287 140.055 36.9641Z" fill="#1E2875"/>
<path d="M149.555 17.8878C149.666 17.6607 149.777 17.5466 149.888 17.3195C149.888 17.3195 149.889 17.4324 149.776 17.4336C149.776 17.4336 149.775 17.3207 149.888 17.3195L149.999 17.2053C150.111 17.0912 150.111 17.0912 150.223 16.977C150.445 16.6358 150.781 16.4062 151.003 16.065C151.225 15.7237 151.562 15.4942 151.784 15.1529C151.894 14.9259 152.119 14.8105 152.229 14.5834C152.228 14.4705 152.341 14.4692 152.34 14.3563C152.452 14.2422 152.45 14.1293 152.449 14.0163C152.559 13.7893 152.33 13.4531 151.991 13.4568C151.878 13.4581 151.765 13.4593 151.539 13.4618C151.426 13.4631 151.428 13.576 151.315 13.5772C151.315 13.5772 151.315 13.5772 151.202 13.5785C151.315 13.5772 151.315 13.5772 151.202 13.5785C150.976 13.581 150.752 13.8093 150.528 13.9247C150.079 14.1556 149.743 14.498 149.408 14.8405C149.073 15.183 148.738 15.5255 148.517 15.9796C148.295 16.3208 147.961 16.7762 147.852 17.1162C147.63 17.4574 147.749 18.0207 148.204 18.2415C148.882 18.3469 149.333 18.229 149.555 17.8878Z" fill="#1E2875"/>
<path d="M145.841 39.0454C146.17 38.1384 146.613 37.343 146.941 36.436C147.27 35.5289 147.6 34.7348 148.042 33.8266C148.485 33.0312 148.814 32.1242 149.257 31.3288C149.7 30.5334 150.369 29.7356 150.472 28.831C150.468 28.4923 150.128 28.3832 149.902 28.3857C149.001 28.6215 148.56 29.6427 148.003 30.3264C147.334 31.1243 146.893 32.0325 146.451 32.9408C146.009 33.8491 145.68 34.7561 145.353 35.776C145.245 36.2289 145.024 36.6831 145.03 37.2476C144.922 37.7005 144.928 38.265 144.933 38.7167C144.827 39.2825 145.62 39.4995 145.841 39.0454Z" fill="#1E2875"/>
<path d="M152.029 26.6682C152.248 26.1012 152.582 25.6458 152.916 25.1904C153.36 24.5079 153.577 23.7151 154.023 23.1455C154.468 22.576 155.03 22.3439 155.59 21.886C156.15 21.4281 156.709 20.9702 157.268 20.3994C159.391 18.3433 161.856 16.5092 164.437 15.0126C165.111 14.6664 165.785 14.3201 166.459 13.9739C166.908 13.7431 167.58 13.2839 167.235 12.7231C166.658 11.6003 164.416 13.0932 163.742 13.4394C161.161 14.936 159.039 17.105 156.688 19.0508C156.016 19.5099 155.457 20.0807 154.899 20.6515C154.34 21.2223 153.897 22.0177 153.339 22.5885C152.78 23.1593 152.107 23.5055 151.548 24.0763C151.101 24.533 150.77 25.2142 150.552 25.8941C150.11 26.8024 151.475 27.6906 152.029 26.6682Z" fill="#1E2875"/>
<path opacity="0.5" d="M98.5629 33.246C99.0046 32.3377 99.1051 31.2073 98.9809 30.1924C98.9683 29.0633 98.8429 27.9355 98.6057 26.9218C98.6032 26.696 98.1515 26.701 98.154 26.9268C98.0523 27.9443 98.0635 28.9604 98.0761 30.0895C98.0861 30.9928 98.0973 32.009 97.7673 32.8031C97.5476 33.3701 98.3432 33.813 98.5629 33.246Z" fill="#FF6C00"/>
<g opacity="0.5">
<path d="M98.6217 18.5654C98.6104 17.5492 98.7121 16.5318 98.5891 15.6298C98.4649 14.6148 98.1161 13.7153 97.5414 12.8183C97.4259 12.5938 96.9754 12.7117 97.0921 13.0492C97.5639 14.8507 97.5852 16.7701 97.6064 18.6896C97.4998 19.2554 98.6292 19.2428 98.6217 18.5654Z" fill="#FF6C00"/>
</g>
<path opacity="0.5" d="M93.5476 8.9104C93.3117 8.00963 92.9629 7.11012 92.5023 6.32478C92.2727 5.98855 92.1547 5.53817 91.9251 5.20195C91.6955 4.86573 91.4621 4.19079 91.0103 4.19579C90.7844 4.1983 90.5585 4.2008 90.4481 4.42787C90.2272 4.88201 90.571 5.32989 90.8019 5.77901C91.0316 6.11524 91.2625 6.56436 91.3792 6.90184C91.8397 7.68719 92.1873 8.47379 92.4219 9.26164C92.6553 9.93659 93.781 9.58534 93.5476 8.9104Z" fill="#FF6C00"/>
<path opacity="0.5" d="M98.7253 7.27199C98.9412 6.36622 99.0429 5.3488 99.1446 4.33137C99.1396 3.87974 99.1333 3.3152 99.1283 2.86356C99.1233 2.41193 99.117 1.84739 98.8862 1.39826C98.7695 1.06079 98.3177 1.0658 98.2085 1.40577C97.9876 1.85991 97.9939 2.42445 97.9989 2.87609C98.0039 3.32772 98.0089 3.77935 98.0139 4.23098C98.0239 5.13425 97.921 6.03877 97.818 6.94329C97.8206 7.1691 97.9373 7.50658 98.1631 7.50407C98.3915 7.72738 98.7291 7.61072 98.7253 7.27199Z" fill="#FF6C00"/>
<path opacity="0.5" d="M103.055 10.4987C103.268 9.36716 103.709 8.34597 104.263 7.43645C104.818 6.52692 105.6 5.7278 106.268 4.81702C106.378 4.58995 106.261 4.25248 106.037 4.36789C104.798 4.72039 103.906 5.74658 103.352 6.76901C102.686 7.7927 102.361 9.03845 102.147 10.17C101.929 10.85 102.949 11.1774 103.055 10.4987Z" fill="#FF6C00"/>
<path d="M177.756 54.8395C177.868 54.7253 177.866 54.6124 177.978 54.4982C178.089 54.2712 178.199 54.0441 178.196 53.8183C178.194 53.5925 178.193 53.4796 178.303 53.2525L178.302 53.1396C178.301 53.0267 178.299 52.9138 178.298 52.8009C178.296 52.575 178.293 52.3492 178.178 52.1247C178.175 51.8989 178.061 51.7872 177.947 51.6755C177.716 51.2264 177.26 50.8927 176.694 50.786C176.922 50.8964 177.149 51.0069 177.377 51.2302C177.149 51.0069 176.922 50.8964 176.696 50.899C176.469 50.7885 176.243 50.7911 176.131 50.9052C175.905 50.9077 175.793 51.0219 175.569 51.1373C175.344 51.2527 175.121 51.481 175.01 51.7081C175.347 51.4785 175.57 51.2502 175.906 51.0206C175.793 51.0219 175.682 51.136 175.569 51.1373C175.344 51.2527 175.119 51.3681 175.008 51.4823C174.896 51.5964 174.784 51.7106 174.673 51.8248C174.674 51.9377 174.561 51.9389 174.562 52.0518C174.564 52.1647 174.452 52.2789 174.453 52.3918C174.565 52.2776 174.562 52.0518 174.674 51.9377C174.675 52.0506 174.562 52.0518 174.564 52.1647C174.565 52.2776 174.452 52.2789 174.453 52.3918C174.341 52.506 174.344 52.7318 174.232 52.8459C174.122 53.073 174.011 53.3001 174.015 53.6388C173.905 53.8659 174.021 54.2033 174.024 54.4292C174.139 54.6537 174.255 54.8783 174.37 55.1029C174.486 55.3274 174.714 55.5507 174.941 55.6611C175.055 55.7728 175.281 55.7703 175.395 55.8819C175.736 55.9911 176.187 55.9861 176.525 55.8694C176.637 55.7553 176.862 55.7528 176.974 55.6386C177.423 55.4078 177.646 55.0665 177.756 54.8395Z" fill="#1E2875"/>
<path d="M173.253 15.7054C173.252 15.5924 173.139 15.5937 173.138 15.4808C173.023 15.3691 172.909 15.2575 172.908 15.1446C172.908 15.1446 172.794 15.0329 172.681 15.0342C172.454 14.9238 172.452 14.8109 172.112 14.7017C171.999 14.703 171.772 14.5925 171.659 14.5938C171.546 14.5951 171.321 14.5976 171.321 14.5976L170.983 14.7142C170.758 14.8296 170.647 14.9438 170.536 15.1709C170.424 15.285 170.424 15.285 170.426 15.3979C170.427 15.5108 170.314 15.5121 170.315 15.625C170.205 15.8521 170.096 16.192 170.099 16.5308C170.103 16.8695 170.219 17.0941 170.335 17.4315C170.68 17.9923 171.249 18.3248 171.814 18.3185C172.378 18.3123 173.052 17.966 173.272 17.399C173.382 17.1719 173.491 16.8319 173.488 16.4932C173.485 16.2674 173.37 16.0428 173.253 15.7054Z" fill="#1E2875"/>
<path d="M90.1681 30.1771C89.2307 27.1386 89.6462 23.8593 90.1771 20.8045C90.1746 20.5787 89.9475 20.4683 89.837 20.6953C88.7414 23.7564 88.4414 27.2603 89.38 30.4117C89.3862 30.9762 90.2873 30.7404 90.1681 30.1771Z" fill="#171416"/>
</g>
</svg>
